<?xml version="1.0" encoding="UTF-8"?>
<svg id="Camada_2" data-name="Camada 2" xmlns="http://www.w3.org/2000/svg" viewBox="0 0 207.99 60.42">
  <defs>
    <style>
      .cls-1 {
        letter-spacing: -.04em;
      }

      .cls-2, .cls-3, .cls-4 {
        fill: #dadada;
      }

      .cls-3 {
        font-size: 39.84px;
      }

      .cls-3, .cls-4, .cls-5, .cls-6 {
        font-family: FiraSans-SemiBold, 'Fira Sans';
        font-weight: 600;
      }

      .cls-4, .cls-5 {
        font-size: 44.84px;
        letter-spacing: -.04em;
      }

      .cls-7 {
        letter-spacing: -.01em;
      }

      .cls-5, .cls-8, .cls-6 {
        fill: #9d9d9c;
      }

      .cls-6 {
        font-size: 49.05px;
      }
    </style>
  </defs>
  <g id="Camada_1-2" data-name="Camada 1">
    <g>
      <path class="cls-8" d="M35.32.31c-4.05,0-3.35,3.89-3.35,3.89,0,0,0,40.8,0,42.65s-.91,3.99,4.16,3.99c9.82,0,21.99-6.3,21.99-25.27S39.38.31,35.32.31ZM46.19,43.9c-3.05,2.07-9.52,5.41-9.52-5.64,0-4.12,0-12.74,0-12.74,0-3.54,0-13.89,0-15.05,0-6.51,2.48-5.61,5.28-4.12,4.63,2.46,10.85,9.03,10.85,19.24,0,8.61-3.62,16.29-6.6,18.32Z"/>
      <path class="cls-2" d="M3.6,32.1c.2,3.11,2.14,4.84,3.52,5.52-.23,1.43.09,2.78.94,3.94,1.49,2.03,4.14,2.98,5.81,3.27.22,3.8,4.27,6.32,8.06,6.32s5.94-1.97,5.94-5.4c0-.61-.03-2.01-.08-3.9-.1-3.9-.25-9.71-.26-15.33h.05s-.04-.94-.04-.94l.04-.96h-.05c0-5.61.14-11.41.24-15.31.05-1.91.08-3.32.08-3.93,0-3.42-2.17-5.39-5.93-5.39h-.02c-3.79,0-7.84,2.54-8.05,6.34-1.66.29-4.32,1.25-5.8,3.28-.85,1.16-1.16,2.51-.94,3.95-1.38.69-3.32,2.42-3.51,5.52-1.03.73-3.59,2.45-3.59,6.57,0,3.8,2.58,5.71,3.6,6.44ZM21.76,47.51c-1.88,0-5.24-1.33-5.57-3.54-.3-2.02.28-3.69.63-4.83.37.05.64,1.45,2.02,1.12s1.68-1.23,1.65-1.97c-.02-.56-.29-1.09-.75-1.48-.54-.46-1.27-.67-2.05-.55-1.31.17-1.83,1.14-1.91,1.96-.46.51-1.23,1.6-1.6,3.4-1.36-.45-4.09-2.01-4.04-3.6.09-2.72.54-4.02,1-4.56.5.16.74,1.19,1.72,1.3.83.09,1.95-.52,2.19-1.09.15-.36.28-.94-.02-1.68-.49-1.2-1.62-1.73-3.05-1.42-.55.12-1.32.72-1.6,1.87-.65.32-1.51.74-1.92,1.97-.62-.49-5.3-5.06-1.25-5.87,1.08-.21,2.04-.54,1.88-.94-.09-.25-1.12-.62-1.52-.54-1.34.26-2.66.81-3.31,1.69-.44-.72-1.2-1.96-1.21-3.16,0-1.19.77-2.68,1.21-3.41.65.88,1.87,1.88,3.07,1.94.41.03,1.95,0,1.96-.25.04-.6-.96-.81-1.92-1.25-3.48-1.6.44-5.37,1.07-5.86.57.31,1.64.94,2.22,1.43.28,1.14.76,2.29,1.31,2.4,1.4.3,2.57-.24,3.05-1.43.5-1.23.19-2.4-1.24-2.62-1.4-.22-2.01.68-2.51.84-.97-.98-1.15-2.04-.68-4.82.23-1.37,1.75-2.44,3.56-3.04.37,1.8,1.37,2.31,1.83,2.82-.16,1.05.39,2.37,1.7,2.54.78.1,1.51-.1,2.05-.56.45-.38.72-.92.74-1.48.03-.74-.35-1.42-1.53-2.14-.82-.5-2.22.61-2.59.67-.25-.7-.6-2.78-.4-4.71.23-2.22,3.9-3.04,5.78-3.04h0c1.46,0,2.13,1.18,2.13,2.27,0,.15-.03.89-.08,2.06-.11,2.77-.32,7.91-.45,13.37v.42c-.04,1.85-.04,2.96-1.41,2.97h-.62c-.82.02-1.66.05-2.69.03-.36-.53-1.05-2.03-2.16-2.03-1.44,0-2.76.91-2.76,2.92,0,1.67,1.32,2.78,2.76,2.78,1.14,0,1.81-1.54,2.16-2.07.98,0,1.64,0,2.5.02h.81c1.36.01,1.37,1.15,1.4,3v.42c.15,5.47.37,10.62.48,13.39.05,1.15.08,1.88.08,2.03,0,1.1-.67,2.28-2.13,2.28ZM18.64,11.64h0s0,0,0,0h0Z"/>
      <text class="cls-3" transform="translate(174.86 43.79) scale(.98 1)"><tspan x="0" y="0">I</tspan></text>
      <text class="cls-5" transform="translate(66.89 43.85) scale(.79 1)"><tspan x="0" y="0">D</tspan></text>
      <text class="cls-4" transform="translate(186.82 43.85) scale(.79 1)"><tspan x="0" y="0">A</tspan></text>
      <text class="cls-6" transform="translate(90.12 43.05) scale(.79 1)"><tspan x="0" y="0">an</tspan><tspan class="cls-7" x="55.24" y="0">t</tspan><tspan class="cls-1" x="73.19" y="0">e</tspan></text>
    </g>
  </g>
</svg>