<?xml version="1.0" encoding="UTF-8"?>
<svg id="Camada_2" data-name="Camada 2" xmlns="http://www.w3.org/2000/svg" viewBox="0 0 212.37 61.43">
  <defs>
    <style>
      .cls-1 {
        fill: #f6f6f6;
      }

      .cls-2, .cls-3, .cls-4 {
        fill: #262626;
      }

      .cls-5 {
        font-size: 49.09px;
      }

      .cls-5, .cls-3, .cls-4, .cls-6 {
        font-family: FiraSans-SemiBold, 'Fira Sans';
        font-weight: 600;
      }

      .cls-5, .cls-6 {
        fill: #706f6f;
      }

      .cls-3 {
        font-size: 39.87px;
      }

      .cls-7 {
        letter-spacing: -.01em;
      }

      .cls-4, .cls-6 {
        font-size: 44.87px;
        letter-spacing: -.04em;
      }

      .cls-8 {
        letter-spacing: -.04em;
      }

      .cls-9 {
        fill: #c6c6c6;
      }
    </style>
  </defs>
  <g id="Camada_1-2" data-name="Camada 1">
    <rect class="cls-2" width="64.33" height="57.24" rx="17.29" ry="17.29"/>
    <g>
      <path class="cls-9" d="M37.62,8.52c-3.22,0-2.66,3.1-2.66,3.1,0,0,0,32.44,0,33.92s-.72,3.17,3.31,3.17c7.81,0,17.49-5.01,17.49-20.09s-14.91-20.09-18.13-20.09ZM46.27,43.19c-2.43,1.65-7.57,4.3-7.57-4.49,0-3.28,0-10.13,0-10.13,0-2.81,0-11.05,0-11.97,0-5.18,1.97-4.46,4.2-3.28,3.68,1.96,8.63,7.19,8.63,15.3,0,6.85-2.88,12.96-5.25,14.57Z"/>
      <path class="cls-1" d="M11.44,33.8c.16,2.48,1.7,3.85,2.8,4.39-.18,1.14.08,2.21.75,3.13,1.18,1.61,3.29,2.37,4.62,2.6.17,3.02,3.4,5.03,6.41,5.03s4.73-1.56,4.73-4.29c0-.49-.03-1.6-.07-3.1-.08-3.1-.2-7.72-.21-12.19h.04s-.03-.75-.03-.75l.03-.76h-.04c0-4.46.11-9.07.19-12.17.04-1.52.06-2.64.06-3.13,0-2.72-1.72-4.28-4.72-4.28h-.01c-3.01,0-6.23,2.02-6.4,5.04-1.32.23-3.43.99-4.61,2.61-.67.92-.93,2-.74,3.14-1.1.55-2.64,1.92-2.79,4.39-.82.58-2.86,1.95-2.86,5.23,0,3.03,2.05,4.54,2.87,5.12ZM25.88,46.06c-1.5,0-4.17-1.06-4.43-2.82-.24-1.61.23-2.93.5-3.84.29.04.51,1.16,1.61.89s1.33-.98,1.31-1.56c-.02-.44-.23-.87-.59-1.17-.43-.36-1.01-.53-1.63-.44-1.04.13-1.45.9-1.52,1.56-.36.41-.98,1.27-1.28,2.7-1.08-.36-3.25-1.6-3.21-2.87.07-2.16.43-3.2.79-3.63.4.13.59.95,1.37,1.03.66.07,1.55-.41,1.74-.87.12-.29.22-.75-.02-1.33-.39-.95-1.29-1.38-2.42-1.13-.43.1-1.05.58-1.27,1.48-.52.26-1.2.59-1.53,1.57-.5-.39-4.22-4.03-.99-4.67.86-.17,1.62-.43,1.5-.75-.07-.19-.89-.49-1.21-.43-1.06.2-2.12.64-2.63,1.34-.35-.58-.96-1.56-.96-2.51,0-.95.61-2.13.96-2.71.52.7,1.49,1.49,2.44,1.55.33.02,1.55,0,1.56-.2.03-.47-.77-.64-1.53-.99-2.77-1.27.35-4.27.85-4.66.45.25,1.3.74,1.77,1.14.22.91.61,1.82,1.04,1.91,1.11.24,2.04-.19,2.42-1.14.39-.98.15-1.91-.99-2.09s-1.6.54-1.99.67c-.77-.78-.91-1.62-.54-3.83.18-1.09,1.39-1.94,2.83-2.41.3,1.43,1.09,1.84,1.45,2.25-.13.83.31,1.89,1.35,2.02.62.08,1.2-.08,1.63-.44.36-.3.58-.73.59-1.18.02-.59-.28-1.13-1.22-1.7-.65-.4-1.77.48-2.06.53-.2-.56-.48-2.21-.32-3.75.18-1.76,3.1-2.42,4.6-2.42h0c1.16,0,1.69.94,1.69,1.81,0,.12-.02.71-.06,1.64-.09,2.21-.25,6.29-.36,10.63v.34c-.03,1.47-.03,2.36-1.12,2.36h-.49c-.65.01-1.32.04-2.14.03-.28-.42-.84-1.62-1.72-1.62-1.15,0-2.19.72-2.19,2.32,0,1.33,1.05,2.21,2.19,2.21.9,0,1.44-1.22,1.72-1.64.78,0,1.31,0,1.99.02h.64c1.09,0,1.09.92,1.11,2.39v.34c.12,4.35.29,8.44.38,10.64.04.91.06,1.49.06,1.62,0,.87-.53,1.81-1.69,1.81ZM23.4,17.53h0s0,0,0,0h0Z"/>
    </g>
    <g>
      <text class="cls-3" transform="translate(179.21 44.79) scale(.98 1)"><tspan x="0" y="0">I</tspan></text>
      <text class="cls-6" transform="translate(71.16 44.85) scale(.79 1)"><tspan x="0" y="0">D</tspan></text>
      <text class="cls-4" transform="translate(191.18 44.85) scale(.79 1)"><tspan x="0" y="0">A</tspan></text>
      <text class="cls-5" transform="translate(94.41 44.05) scale(.79 1)"><tspan x="0" y="0">an</tspan><tspan class="cls-7" x="55.28" y="0">t</tspan><tspan class="cls-8" x="73.25" y="0">e</tspan></text>
    </g>
  </g>
</svg>