<?xml version="1.0" encoding="UTF-8"?>
<svg id="Camada_2" data-name="Camada 2" xmlns="http://www.w3.org/2000/svg" viewBox="0 0 208.16 60.47">
  <defs>
    <style>
      .cls-1, .cls-2, .cls-3 {
        fill: #706f6f;
      }

      .cls-4, .cls-5, .cls-6 {
        fill: #262626;
      }

      .cls-2 {
        font-size: 49.09px;
      }

      .cls-2, .cls-5, .cls-6, .cls-3 {
        font-family: FiraSans-SemiBold, 'Fira Sans';
        font-weight: 600;
      }

      .cls-5 {
        font-size: 39.87px;
      }

      .cls-7 {
        letter-spacing: -.01em;
      }

      .cls-6, .cls-3 {
        font-size: 44.87px;
        letter-spacing: -.04em;
      }

      .cls-8 {
        letter-spacing: -.04em;
      }
    </style>
  </defs>
  <g id="Camada_1-2" data-name="Camada 1">
    <g>
      <g>
        <path class="cls-1" d="M35.35.31c-4.06,0-3.35,3.9-3.35,3.9,0,0,0,40.83,0,42.68s-.91,3.99,4.16,3.99c9.83,0,22.01-6.3,22.01-25.29S39.41.31,35.35.31ZM46.23,43.93c-3.06,2.07-9.53,5.41-9.53-5.65,0-4.13,0-12.75,0-12.75,0-3.54,0-13.9,0-15.06,0-6.52,2.48-5.62,5.28-4.13,4.63,2.46,10.86,9.04,10.86,19.25,0,8.62-3.62,16.3-6.61,18.33Z"/>
        <path class="cls-4" d="M3.61,32.12c.2,3.12,2.14,4.84,3.52,5.52-.23,1.44.09,2.79.94,3.94,1.49,2.03,4.15,2.99,5.81,3.27.22,3.8,4.27,6.33,8.07,6.33s5.95-1.97,5.95-5.4c0-.62-.03-2.01-.08-3.91-.1-3.91-.25-9.71-.26-15.35h.05s-.04-.94-.04-.94l.04-.96h-.05c0-5.62.14-11.42.24-15.32.05-1.91.08-3.32.08-3.94,0-3.43-2.17-5.39-5.94-5.39h-.02c-3.79,0-7.85,2.54-8.06,6.34-1.66.29-4.32,1.25-5.81,3.28-.85,1.16-1.16,2.51-.94,3.95-1.38.69-3.32,2.42-3.51,5.53-1.03.73-3.59,2.45-3.59,6.58,0,3.81,2.58,5.72,3.61,6.44ZM21.77,47.55c-1.89,0-5.25-1.33-5.58-3.55-.3-2.02.28-3.69.63-4.84.37.05.64,1.45,2.02,1.12s1.68-1.23,1.65-1.97c-.02-.56-.29-1.09-.75-1.48-.54-.46-1.27-.67-2.05-.55-1.31.17-1.83,1.14-1.91,1.97-.46.51-1.24,1.6-1.61,3.4-1.36-.45-4.09-2.01-4.04-3.61.09-2.72.54-4.03,1-4.56.5.16.74,1.19,1.72,1.3.83.09,1.95-.52,2.19-1.09.15-.36.28-.94-.02-1.68-.49-1.2-1.62-1.73-3.05-1.43-.55.12-1.32.72-1.6,1.87-.65.32-1.51.74-1.93,1.97-.62-.49-5.31-5.07-1.25-5.87,1.08-.21,2.04-.54,1.89-.94-.09-.25-1.12-.62-1.52-.54-1.34.26-2.66.81-3.31,1.69-.44-.72-1.21-1.96-1.21-3.16,0-1.19.77-2.68,1.21-3.41.65.88,1.87,1.88,3.07,1.94.41.03,1.95,0,1.97-.25.04-.6-.96-.81-1.92-1.25-3.48-1.6.45-5.37,1.07-5.86.57.31,1.64.94,2.22,1.43.28,1.14.76,2.29,1.31,2.41,1.4.3,2.57-.24,3.05-1.43.5-1.23.19-2.4-1.24-2.63s-2.01.68-2.51.85c-.97-.98-1.15-2.04-.68-4.83.23-1.37,1.75-2.44,3.56-3.04.37,1.8,1.37,2.32,1.83,2.83-.16,1.05.39,2.37,1.7,2.54.78.1,1.51-.1,2.05-.56.45-.38.73-.92.74-1.48.03-.74-.35-1.42-1.54-2.14-.82-.5-2.22.61-2.59.67-.25-.71-.6-2.78-.4-4.71.23-2.22,3.9-3.04,5.78-3.04h0c1.46,0,2.13,1.18,2.13,2.28,0,.15-.03.89-.08,2.06-.11,2.78-.32,7.92-.45,13.38v.42c-.04,1.85-.04,2.97-1.41,2.97h-.62c-.82.02-1.66.05-2.69.03-.36-.53-1.06-2.03-2.16-2.03-1.44,0-2.76.91-2.76,2.92,0,1.67,1.32,2.78,2.76,2.78,1.14,0,1.81-1.54,2.17-2.07.98,0,1.64,0,2.5.02h.81c1.37.01,1.37,1.15,1.4,3.01v.42c.15,5.47.37,10.63.48,13.4.05,1.15.08,1.88.08,2.04,0,1.1-.67,2.28-2.13,2.28ZM18.66,11.65h0s0,0,0,0h0Z"/>
      </g>
      <g>
        <text class="cls-5" transform="translate(175 43.82) scale(.98 1)"><tspan x="0" y="0">I</tspan></text>
        <text class="cls-3" transform="translate(66.95 43.88) scale(.79 1)"><tspan x="0" y="0">D</tspan></text>
        <text class="cls-6" transform="translate(186.97 43.88) scale(.79 1)"><tspan x="0" y="0">A</tspan></text>
        <text class="cls-2" transform="translate(90.2 43.09) scale(.79 1)"><tspan x="0" y="0">an</tspan><tspan class="cls-7" x="55.28" y="0">t</tspan><tspan class="cls-8" x="73.25" y="0">e</tspan></text>
      </g>
    </g>
  </g>
</svg>